# Blender 3.6.1
# www.blender.org
mtllib Object_Rock5.mtl
o smallrock5
v 5.103768 0.133997 1.342934
v -1.986488 3.783027 -3.988306
v 2.065862 3.057429 3.787755
v 4.791802 3.809009 -0.776044
v -0.517295 -0.874854 3.607742
v -2.141952 -0.616722 -1.033276
v -3.362932 4.340427 2.294849
v -2.103194 1.946618 4.319029
v 2.513532 3.449568 -3.636886
v 4.267251 -0.919919 -1.430630
v -3.881605 -0.423708 1.347034
v 2.452357 4.471848 0.053767
v 0.085831 4.556175 -0.048334
v -4.276111 3.672503 -0.684973
v 2.209606 -0.646469 -3.668787
v -1.156807 3.586542 4.309170
v 3.853745 3.820592 -2.716390
v 4.948186 1.353427 -1.275675
v -1.740066 4.595679 1.593473
v -0.321949 4.517962 -1.880011
v 4.780509 1.755706 1.693117
v -4.150895 0.228646 -2.202025
v 0.501528 4.020135 4.340126
v 0.383713 1.186873 -4.618414
v -2.066287 -0.709726 3.168059
v 3.248271 4.196853 -2.918909
v -3.006312 -0.110575 3.996909
v -2.996160 -0.466227 -3.106348
v 1.140941 1.827750 4.415889
v -3.969884 1.539804 -3.643030
v -3.521536 4.380958 -1.975281
v -4.074012 3.619135 -2.728553
v 2.589335 -0.830342 2.327253
v 4.483334 3.123298 -2.455243
v -3.589745 3.702088 3.131121
v -3.940190 -0.451730 -1.349619
v 0.975984 4.761219 -1.648531
v -2.168253 4.196961 -3.343490
v -0.574945 -0.433118 4.336653
v 0.495182 4.364078 2.380133
v -1.694322 -0.484004 -4.082648
v 1.377808 -0.326717 4.331325
v -1.523961 -0.699218 -3.443240
v -3.287724 0.957341 4.021067
v 4.087689 -0.856646 1.712418
v -3.897746 4.406057 -0.585378
v 4.853322 -0.678480 -0.658372
v 4.265280 4.053881 0.293487
v 3.121789 -0.733285 -3.088588
v -2.877234 3.958231 3.407809
v 1.093097 -0.643709 -2.785019
v 0.179162 3.348246 -4.445545
v -4.245771 1.208526 -0.232056
v 1.183078 4.061119 -4.035498
v -3.436066 -0.015243 -3.599560
v 3.738389 2.265995 -2.986470
v -4.141426 -0.497937 -0.373494
v -4.041172 2.678349 -3.529433
v -2.145519 4.532275 2.837354
v 0.755861 -0.790019 4.120870
v 0.149022 0.067339 -4.559363
v -3.283307 3.637671 -3.741562
v 2.646809 -0.759193 3.317863
v -1.592087 4.382071 3.299093
v 4.800954 0.121761 -2.259605
v 5.125101 2.385378 1.286674
v 1.808838 -0.616908 -0.615294
v 1.086280 2.914020 -4.248691
v -0.079520 -0.620347 -0.867899
v 3.868942 3.564820 2.076776
v 0.392520 -0.458220 -4.145895
v 1.553435 4.110980 3.555358
v -1.153633 4.262748 -3.204853
v 1.405942 -0.940037 3.688989
v -3.482338 2.388153 3.447639
v 1.361015 3.927267 4.274647
v 0.919004 4.626134 -2.497855
v -2.647686 -0.680809 1.700567
v -1.752107 -0.462590 4.240282
v -1.662338 4.412081 -0.930393
v 3.542330 4.177181 1.325307
v -1.618666 0.669561 4.358317
v 3.406178 -0.845988 0.160771
v -3.503323 -0.520231 2.143755
vn 0.7462 0.6521 -0.1338
vn 0.5532 0.8131 0.1815
vn 0.8808 0.2447 0.4053
vn -0.0814 -0.9966 -0.0115
vn -0.0017 -0.9999 -0.0135
vn -0.0613 -0.9978 -0.0247
vn 0.4874 -0.0108 -0.8731
vn 0.8180 -0.2265 -0.5287
vn 0.3263 -0.5378 -0.7774
vn -0.0738 0.9971 -0.0176
vn 0.0051 0.9984 0.0560
vn -0.0640 0.9970 -0.0444
vn 0.6145 0.0799 0.7849
vn 0.3242 -0.1834 0.9280
vn 0.6563 0.0172 0.7543
vn -0.8822 0.2989 0.3638
vn -0.9819 0.1886 0.0200
vn -0.9949 -0.0304 0.0960
vn -0.9671 -0.1961 -0.1623
vn -0.0757 0.9819 -0.1737
vn 0.0248 0.9679 -0.2501
vn 0.1338 0.6896 -0.7117
vn -0.2042 0.2178 0.9544
vn -0.6748 0.1556 0.7214
vn -0.2914 0.1336 0.9472
vn -0.0278 0.9455 0.3244
vn 0.0685 0.9898 0.1246
vn 0.1949 0.0155 0.9807
vn -0.0957 -0.0389 0.9946
vn -0.0657 -0.9867 0.1486
vn -0.0920 -0.9958 -0.0028
vn -0.0026 -0.9999 -0.0121
vn 0.2389 -0.9598 -0.1471
vn -0.4004 0.4888 -0.7751
vn 0.0379 0.0179 -0.9991
vn -0.5082 -0.0713 -0.8583
vn 0.4509 -0.6471 0.6147
vn 0.3062 -0.9365 0.1712
vn 0.9238 -0.2101 0.3201
vn 0.9884 0.0428 -0.1454
vn -0.6317 -0.0302 0.7746
vn -0.9314 -0.2726 0.2412
vn -0.1872 -0.6735 0.7151
vn -0.2199 -0.9574 0.1873
vn 0.6294 0.5807 0.5164
vn -0.0137 0.7501 0.6612
vn 0.1609 0.9864 0.0342
vn 0.3545 0.8492 -0.3914
vn -0.0127 0.9989 -0.0444
vn -0.3532 0.9179 0.1810
vn -0.6253 0.7804 0.0054
vn -0.8647 0.1365 -0.4834
vn -0.8663 0.4316 -0.2516
vn 0.3666 0.0532 -0.9289
vn -0.1584 0.5025 -0.8500
vn 0.0731 0.2288 -0.9707
vn -0.3381 0.6443 0.6860
vn 0.4570 0.1709 -0.8729
vn 0.6242 0.4841 -0.6132
vn -0.0498 -0.9986 -0.0161
vn 0.2066 -0.9220 -0.3275
vn 0.7605 -0.6470 -0.0551
vn -0.1288 0.9045 -0.4065
vn -0.2695 0.9375 -0.2202
vn 0.0088 -0.2936 -0.9559
vn -0.2100 -0.6714 -0.7107
vn -0.4453 -0.8807 -0.1614
vn -0.3194 -0.9077 -0.2723
vn -0.0579 -0.9914 -0.1171
vn 0.4432 0.4767 0.7592
vn 0.2336 0.9334 0.2726
vn 0.0348 -0.8061 -0.5908
vn -0.5536 -0.5375 0.6362
vn -0.4045 -0.8989 0.1684
vn -0.6236 -0.7817 -0.0041
vn 0.7784 0.1775 -0.6022
vn -0.6184 -0.5901 -0.5190
vn -0.0478 -0.4999 0.8648
vn 0.0909 -0.7647 0.6380
vn -0.0944 0.9648 0.2456
vn -0.1465 0.9884 -0.0405
vn 0.3093 0.9251 0.2202
vn -0.0125 -0.9999 0.0036
vn 0.1044 -0.9644 0.2430
vt 0.430798 0.720240
vt 0.401264 0.692286
vt 0.345761 0.737269
vt 0.380009 0.225425
vt 0.417136 0.158228
vt 0.429161 0.258479
vt 0.115284 0.157763
vt 0.051795 0.119010
vt 0.024186 0.206242
vt 0.403254 0.489770
vt 0.442703 0.559745
vt 0.483385 0.509830
vt 0.143263 0.852332
vt 0.020588 0.825881
vt 0.101735 0.977694
vt 0.156367 0.635048
vt 0.156411 0.503911
vt 0.073606 0.518244
vt 0.041910 0.451810
vt 0.553923 0.541480
vt 0.514843 0.603820
vt 0.566071 0.624630
vt 0.156191 0.730265
vt 0.111008 0.645229
vt 0.096560 0.701414
vt 0.347413 0.481058
vt 0.361171 0.555459
vt 0.097231 0.814624
vt 0.052695 0.718504
vt 0.524538 0.130885
vt 0.585712 0.203075
vt 0.489801 0.275465
vt 0.344211 0.273618
vt 0.155381 0.391363
vt 0.079001 0.271492
vt 0.088640 0.410784
vt 0.007351 0.884919
vt 0.004001 0.962613
vt 0.044020 0.997068
vt 0.162281 0.075611
vt 0.117294 0.012190
vt 0.087519 0.090360
vt 0.062679 0.662465
vt 0.017456 0.571886
vt 0.569546 0.114361
vt 0.573321 0.152242
vt 0.340856 0.672583
vt 0.296123 0.541214
vt 0.422438 0.635072
vt 0.512716 0.683977
vt 0.487643 0.599540
vt 0.393255 0.432865
vt 0.487749 0.436803
vt 0.122347 0.412538
vt 0.154655 0.435305
vt 0.133347 0.248877
vt 0.160516 0.348992
vt 0.146767 0.278509
vt 0.303813 0.483214
vt 0.350868 0.434835
vt 0.174440 0.788664
vt 0.151067 0.200901
vt 0.176474 0.170388
vt 0.163879 0.150367
vt 0.556575 0.290427
vt 0.012619 0.103372
vt 0.014744 0.166777
vt 0.048268 0.012559
vt 0.026993 0.075900
vt 0.565721 0.508840
vt 0.591112 0.472542
vt 0.528921 0.457214
vt 0.590454 0.518644
vt 0.043499 0.277680
vt 0.024087 0.338669
vt 0.614126 0.309255
vt 0.575180 0.362303
vt 0.525147 0.366354
vt 0.172734 0.819800
vt 0.314516 0.581632
vt 0.459230 0.381868
vt 0.528270 0.389225
vt 0.463945 0.405029
vt 0.612048 0.127135
vt 0.616411 0.192424
vt 0.625418 0.278206
vt 0.141579 0.128983
vt 0.026441 0.667616
vt 0.038083 0.398877
vt 0.626212 0.344183
vt 0.590754 0.383839
vt 0.531203 0.103330
vt 0.485727 0.109087
vt 0.465900 0.091684
vt 0.496848 0.411133
vt 0.365475 0.410322
vt 0.563644 0.437182
vt 0.419965 0.125064
vt 0.490246 0.736942
vt 0.501780 0.706316
vt 0.367069 0.467445
vt 0.504436 0.559460
vt 0.373444 0.661743
vt 0.364956 0.171297
vt 0.002932 0.003106
vt 0.374531 0.333426
vt 0.167085 0.661528
vt 0.442539 0.332848
vt 0.401887 0.356809
vt 0.599280 0.595230
vt 0.016224 0.512810
vt 0.170039 0.244395
vt 0.462673 0.119978
vt 0.125428 0.995909
vt 0.166386 0.940886
vt 0.291238 0.570286
vt 0.012727 0.713044
vt 0.014017 0.755697
vt 0.012627 0.601878
vt 0.625781 0.220363
s 1
usemtl smallrocks
f 4/1/1 48/2/2 66/3/3
f 83/4/4 33/5/5 67/6/6
f 56/7/7 65/8/8 15/9/9
f 19/10/10 13/11/11 80/12/12
f 3/13/13 42/14/14 21/15/15
f 35/16/16 14/17/17 53/18/18
f 53/18/18 14/17/17 22/19/19
f 73/20/20 77/21/21 54/22/22
f 16/23/23 75/24/24 8/25/25
f 64/26/26 40/27/27 13/11/11
f 29/28/28 16/23/23 82/29/29
f 5/30/30 78/31/31 69/32/32
f 10/33/33 83/4/4 67/6/6
f 62/34/34 24/35/35 30/36/36
f 63/37/37 45/38/38 1/39/39
f 4/40/1 66/41/3 18/42/40
f 44/43/41 75/24/24 11/44/42
f 5/30/30 79/45/43 25/46/44
f 66/3/3 48/2/2 70/47/45
f 23/48/46 40/27/27 64/26/26
f 12/49/47 26/50/48 37/51/49
f 77/21/21 26/50/48 54/22/22
f 7/52/50 80/12/12 46/53/51
f 58/54/52 32/55/53 62/34/34
f 15/9/9 68/56/54 56/7/7
f 2/57/55 52/58/56 24/35/35
f 16/59/23 23/48/46 50/60/57
f 23/61/46 16/23/23 29/28/28
f 9/62/58 26/63/48 17/64/59
f 69/32/32 78/31/31 6/65/60
f 10/66/33 49/67/61 65/8/8
f 65/8/8 1/68/39 47/69/62
f 19/10/10 80/12/12 7/52/50
f 23/48/46 64/26/26 50/60/57
f 38/70/63 62/71/34 31/72/64
f 2/73/55 38/70/63 54/22/22
f 1/39/39 21/15/15 63/37/37
f 18/42/40 66/41/3 1/68/39
f 61/74/65 41/75/66 30/36/36
f 36/76/67 28/77/68 43/78/69
f 76/79/70 23/61/46 29/28/28
f 72/80/71 40/27/27 23/48/46
f 24/35/35 68/56/54 15/9/9
f 71/81/72 41/82/66 61/83/65
f 25/46/44 27/84/73 84/85/74
f 78/31/31 57/86/75 6/65/60
f 12/49/47 4/1/1 26/50/48
f 34/87/76 4/40/1 18/42/40
f 44/43/41 11/44/42 27/88/73
f 16/23/23 8/25/25 82/29/29
f 41/75/66 55/89/77 30/36/36
f 36/76/67 22/90/19 55/91/77
f 21/15/15 42/14/14 63/37/37
f 39/92/78 60/93/79 42/94/14
f 22/19/19 30/36/36 55/89/77
f 58/54/52 22/19/19 32/55/53
f 14/95/17 35/96/16 46/53/51
f 32/55/53 22/19/19 14/17/17
f 14/95/17 46/53/51 32/97/53
f 62/71/34 32/97/53 31/72/64
f 33/5/5 5/30/30 67/6/6
f 42/94/14 60/93/79 63/98/37
f 34/99/76 17/100/59 4/1/1
f 34/87/76 9/62/58 17/64/59
f 7/52/50 46/53/51 35/96/16
f 50/60/57 59/101/80 7/52/50
f 84/85/74 57/86/75 78/31/31
f 53/18/18 11/44/42 35/16/16
f 13/11/11 12/49/47 37/51/49
f 13/11/11 37/51/49 20/102/81
f 20/102/81 37/51/49 73/20/20
f 31/72/64 80/12/12 73/20/20
f 44/43/41 27/88/73 82/29/29
f 25/46/44 79/45/43 27/84/73
f 81/103/82 40/27/27 72/80/71
f 40/27/27 12/49/47 13/11/11
f 43/78/69 41/82/66 71/81/72
f 43/78/69 28/77/68 41/82/66
f 29/28/28 82/29/29 42/14/14
f 3/13/13 29/28/28 42/14/14
f 43/78/69 69/32/32 6/65/60
f 6/65/60 36/76/67 43/78/69
f 82/29/29 8/25/25 44/43/41
f 75/24/24 44/43/41 8/25/25
f 45/104/38 33/5/5 83/4/4
f 47/69/62 1/68/39 45/105/38
f 46/53/51 31/72/64 32/97/53
f 46/53/51 80/12/12 31/72/64
f 10/66/33 65/8/8 47/69/62
f 47/69/62 45/105/38 10/66/33
f 12/49/47 48/2/2 4/1/1
f 40/27/27 81/103/82 12/49/47
f 10/33/33 67/6/6 49/106/61
f 49/67/61 15/9/9 65/8/8
f 16/23/23 50/107/57 75/24/24
f 50/60/57 7/52/50 35/96/16
f 49/106/61 51/108/83 15/109/9
f 43/78/69 15/109/9 51/108/83
f 2/73/55 54/22/22 52/110/56
f 52/58/56 68/56/54 24/35/35
f 53/18/18 22/19/19 57/111/75
f 53/18/18 57/111/75 11/44/42
f 52/58/56 54/112/22 68/56/54
f 54/112/22 26/63/48 9/62/58
f 41/82/66 28/77/68 55/91/77
f 28/77/68 36/76/67 55/91/77
f 34/87/76 65/8/8 56/7/7
f 34/87/76 56/7/7 9/62/58
f 60/93/79 74/113/84 63/98/37
f 69/32/32 43/78/69 51/108/83
f 58/54/52 62/34/34 30/36/36
f 58/54/52 30/36/36 22/19/19
f 64/26/26 13/11/11 59/101/80
f 64/26/26 59/101/80 50/60/57
f 30/36/36 24/35/35 61/74/65
f 24/35/35 15/9/9 61/74/65
f 38/70/63 2/73/55 62/71/34
f 62/34/34 2/57/55 24/35/35
f 63/98/37 33/5/5 45/104/38
f 74/113/84 33/5/5 63/98/37
f 7/52/50 59/101/80 19/10/10
f 19/10/10 59/101/80 13/11/11
f 34/87/76 18/42/40 65/8/8
f 18/42/40 1/68/39 65/8/8
f 66/114/3 21/15/15 1/39/39
f 21/15/15 66/114/3 3/13/13
f 67/6/6 69/32/32 51/108/83
f 83/4/4 10/33/33 45/104/38
f 9/62/58 68/56/54 54/112/22
f 68/56/54 9/62/58 56/7/7
f 36/76/67 57/86/75 22/90/19
f 60/93/79 5/30/30 74/113/84
f 72/80/71 70/47/45 81/103/82
f 66/114/3 70/115/45 3/13/13
f 61/83/65 15/109/9 71/81/72
f 43/78/69 71/81/72 15/109/9
f 6/65/60 57/86/75 36/76/67
f 67/6/6 5/30/30 69/32/32
f 70/47/45 72/80/71 76/116/70
f 72/80/71 23/48/46 76/116/70
f 38/70/63 73/20/20 54/22/22
f 31/72/64 73/20/20 38/70/63
f 74/113/84 5/30/30 33/5/5
f 5/30/30 60/93/79 39/92/78
f 50/107/57 35/16/16 75/24/24
f 75/24/24 35/16/16 11/44/42
f 3/13/13 70/115/45 76/79/70
f 29/28/28 3/13/13 76/79/70
f 37/51/49 77/21/21 73/20/20
f 37/51/49 26/50/48 77/21/21
f 25/46/44 78/31/31 5/30/30
f 25/46/44 84/85/74 78/31/31
f 82/29/29 27/88/73 79/117/43
f 39/92/78 79/45/43 5/30/30
f 73/20/20 80/12/12 20/102/81
f 80/12/12 13/11/11 20/102/81
f 48/2/2 12/49/47 81/103/82
f 70/47/45 48/2/2 81/103/82
f 82/29/29 79/117/43 39/118/78
f 82/29/29 39/118/78 42/14/14
f 4/1/1 17/100/59 26/50/48
f 67/6/6 51/108/83 49/106/61
f 11/44/42 84/119/74 27/88/73
f 84/85/74 11/120/42 57/86/75
